<svg width="24" height="25" viewBox="0 0 24 25" fill="none" xmlns="http://www.w3.org/2000/svg">
<path d="M7.25625 19.6781L4.22812 22.2094C4.11886 22.2998 3.9862 22.3574 3.84553 22.3754C3.70486 22.3935 3.56195 22.3713 3.43338 22.3115C3.30481 22.2516 3.19585 22.1565 3.11914 22.0372C3.04244 21.9179 3.00112 21.7793 3 21.6375V6.75C3 6.55109 3.07902 6.36032 3.21967 6.21967C3.36032 6.07902 3.55109 6 3.75 6H20.25C20.4489 6 20.6397 6.07902 20.7803 6.21967C20.921 6.36032 21 6.55109 21 6.75V18.75C21 18.9489 20.921 19.1397 20.7803 19.2803C20.6397 19.421 20.4489 19.5 20.25 19.5H7.73438C7.55878 19.5 7.38907 19.5633 7.25625 19.6781Z" stroke="white" stroke-width="2" stroke-linecap="round" stroke-linejoin="round"/>
<path d="M12 13.875C12.6213 13.875 13.125 13.3713 13.125 12.75C13.125 12.1287 12.6213 11.625 12 11.625C11.3787 11.625 10.875 12.1287 10.875 12.75C10.875 13.3713 11.3787 13.875 12 13.875Z" fill="white"/>
<path d="M7.5 13.875C8.12132 13.875 8.625 13.3713 8.625 12.75C8.625 12.1287 8.12132 11.625 7.5 11.625C6.87868 11.625 6.375 12.1287 6.375 12.75C6.375 13.3713 6.87868 13.875 7.5 13.875Z" fill="white"/>
<path d="M16.5 13.875C17.1213 13.875 17.625 13.3713 17.625 12.75C17.625 12.1287 17.1213 11.625 16.5 11.625C15.8787 11.625 15.375 12.1287 15.375 12.75C15.375 13.3713 15.8787 13.875 16.5 13.875Z" fill="white"/>
</svg>
